G04 EAGLE Gerber RS-274X export*
G75*
%MOMM*%
%FSLAX34Y34*%
%LPD*%
%AMOC8*
5,1,8,0,0,1.08239X$1,22.5*%
G01*
%ADD10P,1.429621X8X292.500000*%
%ADD11P,1.429621X8X202.500000*%
%ADD12C,1.778000*%
%ADD13C,1.828800*%
%ADD14C,0.762000*%

G36*
X554275Y10164D02*
X554275Y10164D01*
X554320Y10162D01*
X554550Y10184D01*
X554780Y10201D01*
X554824Y10210D01*
X554869Y10215D01*
X555093Y10270D01*
X555319Y10320D01*
X555361Y10336D01*
X555405Y10346D01*
X555619Y10433D01*
X555835Y10515D01*
X555874Y10537D01*
X555916Y10554D01*
X556115Y10671D01*
X556317Y10783D01*
X556353Y10811D01*
X556392Y10834D01*
X556572Y10978D01*
X556755Y11118D01*
X556787Y11150D01*
X556822Y11179D01*
X556980Y11349D01*
X557141Y11513D01*
X557167Y11549D01*
X557198Y11582D01*
X557330Y11773D01*
X557465Y11959D01*
X557486Y11999D01*
X557512Y12036D01*
X557615Y12244D01*
X557722Y12447D01*
X557737Y12490D01*
X557757Y12530D01*
X557828Y12750D01*
X557905Y12968D01*
X557914Y13012D01*
X557928Y13055D01*
X557967Y13283D01*
X558011Y13509D01*
X558013Y13554D01*
X558021Y13599D01*
X558039Y13970D01*
X558039Y379630D01*
X558036Y379675D01*
X558038Y379720D01*
X558016Y379950D01*
X557999Y380180D01*
X557990Y380224D01*
X557985Y380269D01*
X557930Y380493D01*
X557880Y380719D01*
X557864Y380761D01*
X557854Y380805D01*
X557767Y381019D01*
X557685Y381235D01*
X557663Y381274D01*
X557646Y381316D01*
X557529Y381515D01*
X557417Y381717D01*
X557389Y381753D01*
X557366Y381792D01*
X557222Y381972D01*
X557082Y382155D01*
X557050Y382187D01*
X557021Y382222D01*
X556851Y382380D01*
X556687Y382541D01*
X556651Y382567D01*
X556618Y382598D01*
X556427Y382730D01*
X556241Y382865D01*
X556201Y382886D01*
X556164Y382912D01*
X555956Y383015D01*
X555753Y383122D01*
X555710Y383137D01*
X555670Y383157D01*
X555450Y383228D01*
X555232Y383305D01*
X555188Y383314D01*
X555145Y383328D01*
X554917Y383367D01*
X554691Y383411D01*
X554646Y383413D01*
X554601Y383421D01*
X554230Y383439D01*
X13970Y383439D01*
X13925Y383436D01*
X13880Y383438D01*
X13650Y383416D01*
X13420Y383399D01*
X13376Y383390D01*
X13331Y383385D01*
X13107Y383330D01*
X12881Y383280D01*
X12839Y383264D01*
X12795Y383254D01*
X12581Y383167D01*
X12365Y383085D01*
X12326Y383063D01*
X12284Y383046D01*
X12085Y382929D01*
X11883Y382817D01*
X11847Y382789D01*
X11808Y382766D01*
X11628Y382622D01*
X11445Y382482D01*
X11413Y382450D01*
X11378Y382421D01*
X11220Y382251D01*
X11059Y382087D01*
X11033Y382051D01*
X11002Y382018D01*
X10870Y381827D01*
X10735Y381641D01*
X10714Y381601D01*
X10688Y381564D01*
X10585Y381356D01*
X10478Y381153D01*
X10463Y381110D01*
X10443Y381070D01*
X10372Y380850D01*
X10295Y380632D01*
X10286Y380588D01*
X10272Y380545D01*
X10233Y380317D01*
X10189Y380091D01*
X10187Y380046D01*
X10179Y380001D01*
X10161Y379630D01*
X10161Y13970D01*
X10164Y13925D01*
X10162Y13880D01*
X10184Y13650D01*
X10201Y13420D01*
X10210Y13376D01*
X10215Y13331D01*
X10270Y13107D01*
X10320Y12881D01*
X10336Y12839D01*
X10346Y12795D01*
X10433Y12581D01*
X10515Y12365D01*
X10537Y12326D01*
X10554Y12284D01*
X10671Y12085D01*
X10783Y11883D01*
X10811Y11847D01*
X10834Y11808D01*
X10978Y11628D01*
X11118Y11445D01*
X11150Y11413D01*
X11179Y11378D01*
X11349Y11220D01*
X11513Y11059D01*
X11549Y11033D01*
X11582Y11002D01*
X11773Y10870D01*
X11959Y10735D01*
X11999Y10714D01*
X12036Y10688D01*
X12244Y10585D01*
X12447Y10478D01*
X12490Y10463D01*
X12530Y10443D01*
X12750Y10372D01*
X12968Y10295D01*
X13012Y10286D01*
X13055Y10272D01*
X13283Y10233D01*
X13509Y10189D01*
X13554Y10187D01*
X13599Y10179D01*
X13970Y10161D01*
X554230Y10161D01*
X554275Y10164D01*
G37*
%LPC*%
G36*
X76625Y33781D02*
X76625Y33781D01*
X70370Y36372D01*
X65582Y41160D01*
X62991Y47415D01*
X62991Y54185D01*
X65582Y60440D01*
X65948Y60806D01*
X65978Y60840D01*
X66011Y60871D01*
X66086Y60962D01*
X66156Y61033D01*
X66217Y61117D01*
X66309Y61224D01*
X66333Y61262D01*
X66362Y61297D01*
X66435Y61418D01*
X66480Y61479D01*
X66517Y61550D01*
X66606Y61689D01*
X66624Y61730D01*
X66648Y61769D01*
X66712Y61920D01*
X66737Y61968D01*
X66756Y62022D01*
X66832Y62192D01*
X66845Y62235D01*
X66862Y62277D01*
X66909Y62458D01*
X66920Y62488D01*
X66927Y62523D01*
X66984Y62722D01*
X66990Y62767D01*
X67001Y62811D01*
X67024Y63017D01*
X67026Y63029D01*
X67027Y63045D01*
X67057Y63269D01*
X67057Y63314D01*
X67061Y63359D01*
X67053Y63590D01*
X67051Y63821D01*
X67043Y63865D01*
X67042Y63911D01*
X67000Y64138D01*
X66964Y64366D01*
X66951Y64409D01*
X66943Y64453D01*
X66869Y64672D01*
X66800Y64892D01*
X66781Y64933D01*
X66766Y64976D01*
X66662Y65181D01*
X66562Y65390D01*
X66537Y65428D01*
X66516Y65468D01*
X66384Y65656D01*
X66254Y65848D01*
X66224Y65881D01*
X66198Y65918D01*
X65948Y66194D01*
X65582Y66560D01*
X62991Y72815D01*
X62991Y79585D01*
X65582Y85840D01*
X65948Y86206D01*
X65978Y86240D01*
X66011Y86271D01*
X66159Y86450D01*
X66309Y86624D01*
X66333Y86662D01*
X66362Y86697D01*
X66482Y86894D01*
X66606Y87089D01*
X66624Y87130D01*
X66648Y87169D01*
X66738Y87381D01*
X66832Y87592D01*
X66845Y87635D01*
X66862Y87677D01*
X66921Y87901D01*
X66984Y88122D01*
X66990Y88167D01*
X67001Y88211D01*
X67026Y88441D01*
X67057Y88669D01*
X67057Y88714D01*
X67061Y88759D01*
X67053Y88990D01*
X67051Y89221D01*
X67043Y89265D01*
X67042Y89311D01*
X67000Y89538D01*
X66964Y89766D01*
X66951Y89809D01*
X66943Y89853D01*
X66869Y90072D01*
X66800Y90292D01*
X66781Y90333D01*
X66766Y90376D01*
X66662Y90581D01*
X66562Y90790D01*
X66537Y90828D01*
X66516Y90868D01*
X66384Y91056D01*
X66254Y91248D01*
X66224Y91281D01*
X66198Y91318D01*
X65948Y91594D01*
X65582Y91960D01*
X62991Y98215D01*
X62991Y104985D01*
X65582Y111240D01*
X65948Y111606D01*
X65978Y111640D01*
X66011Y111671D01*
X66159Y111850D01*
X66309Y112024D01*
X66333Y112062D01*
X66362Y112097D01*
X66482Y112294D01*
X66606Y112489D01*
X66624Y112530D01*
X66648Y112569D01*
X66738Y112781D01*
X66832Y112992D01*
X66845Y113035D01*
X66862Y113077D01*
X66921Y113301D01*
X66984Y113522D01*
X66990Y113567D01*
X67001Y113611D01*
X67026Y113841D01*
X67057Y114069D01*
X67057Y114114D01*
X67061Y114159D01*
X67053Y114390D01*
X67051Y114621D01*
X67043Y114665D01*
X67042Y114711D01*
X67000Y114938D01*
X66964Y115166D01*
X66951Y115209D01*
X66943Y115253D01*
X66869Y115472D01*
X66800Y115692D01*
X66781Y115733D01*
X66766Y115776D01*
X66662Y115981D01*
X66562Y116190D01*
X66537Y116228D01*
X66516Y116268D01*
X66384Y116456D01*
X66254Y116648D01*
X66224Y116681D01*
X66198Y116718D01*
X65948Y116994D01*
X65582Y117360D01*
X62991Y123615D01*
X62991Y130385D01*
X65582Y136640D01*
X65948Y137006D01*
X65978Y137040D01*
X66011Y137071D01*
X66088Y137164D01*
X66141Y137218D01*
X66191Y137287D01*
X66309Y137424D01*
X66333Y137462D01*
X66362Y137497D01*
X66456Y137651D01*
X66465Y137664D01*
X66476Y137684D01*
X66482Y137694D01*
X66606Y137889D01*
X66624Y137930D01*
X66648Y137969D01*
X66738Y138181D01*
X66832Y138392D01*
X66845Y138435D01*
X66862Y138477D01*
X66921Y138701D01*
X66984Y138922D01*
X66990Y138967D01*
X67001Y139011D01*
X67026Y139241D01*
X67057Y139469D01*
X67057Y139514D01*
X67061Y139559D01*
X67053Y139790D01*
X67051Y140021D01*
X67043Y140065D01*
X67042Y140111D01*
X67000Y140338D01*
X66964Y140566D01*
X66951Y140609D01*
X66943Y140653D01*
X66869Y140872D01*
X66800Y141092D01*
X66781Y141133D01*
X66766Y141176D01*
X66662Y141381D01*
X66562Y141590D01*
X66537Y141628D01*
X66516Y141668D01*
X66384Y141856D01*
X66254Y142048D01*
X66224Y142081D01*
X66198Y142118D01*
X65948Y142394D01*
X65582Y142760D01*
X62991Y149015D01*
X62991Y155785D01*
X65582Y162040D01*
X65948Y162406D01*
X65978Y162441D01*
X66011Y162471D01*
X66159Y162650D01*
X66309Y162824D01*
X66333Y162862D01*
X66362Y162897D01*
X66482Y163094D01*
X66606Y163289D01*
X66624Y163330D01*
X66648Y163369D01*
X66737Y163581D01*
X66832Y163792D01*
X66845Y163835D01*
X66862Y163877D01*
X66920Y164100D01*
X66984Y164322D01*
X66990Y164367D01*
X67001Y164411D01*
X67026Y164640D01*
X67057Y164869D01*
X67057Y164914D01*
X67061Y164959D01*
X67053Y165190D01*
X67051Y165421D01*
X67043Y165465D01*
X67042Y165510D01*
X67000Y165738D01*
X66964Y165966D01*
X66951Y166009D01*
X66943Y166053D01*
X66869Y166272D01*
X66800Y166492D01*
X66781Y166533D01*
X66767Y166576D01*
X66662Y166782D01*
X66562Y166990D01*
X66537Y167027D01*
X66516Y167068D01*
X66383Y167256D01*
X66254Y167448D01*
X66224Y167481D01*
X66198Y167518D01*
X65948Y167794D01*
X65582Y168160D01*
X62991Y174415D01*
X62991Y181185D01*
X65582Y187440D01*
X70086Y191945D01*
X70101Y191961D01*
X70117Y191976D01*
X70281Y192170D01*
X70447Y192362D01*
X70459Y192380D01*
X70473Y192397D01*
X70608Y192613D01*
X70744Y192827D01*
X70753Y192847D01*
X70765Y192866D01*
X70866Y193097D01*
X70971Y193330D01*
X70977Y193351D01*
X70985Y193371D01*
X71052Y193616D01*
X71122Y193860D01*
X71125Y193882D01*
X71131Y193904D01*
X71161Y194155D01*
X71195Y194407D01*
X71195Y194429D01*
X71198Y194451D01*
X71192Y194705D01*
X71189Y194959D01*
X71185Y194981D01*
X71185Y195003D01*
X71142Y195253D01*
X71103Y195504D01*
X71096Y195525D01*
X71092Y195547D01*
X71014Y195787D01*
X70939Y196031D01*
X70929Y196050D01*
X70922Y196071D01*
X70810Y196299D01*
X70700Y196528D01*
X70688Y196546D01*
X70678Y196566D01*
X70475Y196877D01*
X70234Y197209D01*
X69417Y198812D01*
X69229Y199391D01*
X88900Y199391D01*
X108571Y199391D01*
X108383Y198812D01*
X107566Y197209D01*
X107325Y196877D01*
X107314Y196858D01*
X107300Y196841D01*
X107168Y196624D01*
X107034Y196409D01*
X107025Y196388D01*
X107014Y196369D01*
X106915Y196135D01*
X106814Y195903D01*
X106808Y195882D01*
X106800Y195861D01*
X106736Y195616D01*
X106669Y195371D01*
X106666Y195348D01*
X106661Y195327D01*
X106633Y195076D01*
X106602Y194823D01*
X106603Y194801D01*
X106600Y194779D01*
X106609Y194526D01*
X106616Y194271D01*
X106619Y194250D01*
X106620Y194228D01*
X106666Y193977D01*
X106708Y193728D01*
X106715Y193707D01*
X106719Y193685D01*
X106801Y193442D01*
X106879Y193203D01*
X106888Y193183D01*
X106895Y193162D01*
X107010Y192936D01*
X107123Y192708D01*
X107135Y192690D01*
X107145Y192670D01*
X107291Y192464D01*
X107436Y192254D01*
X107451Y192238D01*
X107464Y192220D01*
X107714Y191945D01*
X108804Y190854D01*
X108959Y190720D01*
X109110Y190580D01*
X109168Y190540D01*
X109221Y190494D01*
X109394Y190383D01*
X109563Y190266D01*
X109627Y190235D01*
X109686Y190197D01*
X109874Y190112D01*
X110058Y190021D01*
X110125Y189999D01*
X110189Y189970D01*
X110387Y189914D01*
X110582Y189850D01*
X110652Y189838D01*
X110720Y189819D01*
X110923Y189792D01*
X111126Y189757D01*
X111216Y189752D01*
X111266Y189746D01*
X111337Y189747D01*
X111497Y189739D01*
X192875Y189739D01*
X197263Y187921D01*
X219729Y165454D01*
X219884Y165321D01*
X220035Y165180D01*
X220094Y165140D01*
X220147Y165094D01*
X220320Y164983D01*
X220489Y164866D01*
X220552Y164835D01*
X220612Y164797D01*
X220799Y164713D01*
X220983Y164621D01*
X221051Y164599D01*
X221115Y164570D01*
X221313Y164514D01*
X221508Y164450D01*
X221577Y164438D01*
X221645Y164419D01*
X221849Y164392D01*
X222052Y164357D01*
X222142Y164352D01*
X222192Y164346D01*
X222263Y164347D01*
X222423Y164339D01*
X226035Y164339D01*
X226275Y164356D01*
X226515Y164369D01*
X226550Y164376D01*
X226585Y164379D01*
X226820Y164431D01*
X227056Y164478D01*
X227089Y164490D01*
X227124Y164498D01*
X227349Y164583D01*
X227576Y164664D01*
X227607Y164681D01*
X227640Y164693D01*
X227850Y164810D01*
X228063Y164923D01*
X228091Y164944D01*
X228122Y164961D01*
X228313Y165107D01*
X228507Y165250D01*
X228532Y165275D01*
X228560Y165296D01*
X228728Y165468D01*
X228900Y165637D01*
X228921Y165666D01*
X228946Y165691D01*
X229086Y165884D01*
X229232Y166078D01*
X229250Y166109D01*
X229270Y166137D01*
X229382Y166349D01*
X229498Y166561D01*
X229510Y166594D01*
X229527Y166625D01*
X229607Y166852D01*
X229691Y167078D01*
X229698Y167112D01*
X229710Y167146D01*
X229756Y167382D01*
X229807Y167617D01*
X229809Y167653D01*
X229816Y167687D01*
X229828Y167928D01*
X229844Y168168D01*
X229841Y168203D01*
X229843Y168238D01*
X229820Y168478D01*
X229801Y168718D01*
X229794Y168752D01*
X229790Y168787D01*
X229733Y169020D01*
X229680Y169256D01*
X229665Y169297D01*
X229659Y169323D01*
X229634Y169384D01*
X229554Y169606D01*
X227583Y174364D01*
X227583Y181236D01*
X230213Y187584D01*
X230435Y187806D01*
X230465Y187841D01*
X230498Y187871D01*
X230645Y188049D01*
X230796Y188224D01*
X230820Y188262D01*
X230849Y188297D01*
X230968Y188494D01*
X231093Y188689D01*
X231111Y188730D01*
X231135Y188769D01*
X231224Y188981D01*
X231319Y189192D01*
X231332Y189235D01*
X231349Y189277D01*
X231407Y189500D01*
X231471Y189722D01*
X231477Y189767D01*
X231488Y189811D01*
X231513Y190041D01*
X231544Y190269D01*
X231543Y190314D01*
X231548Y190359D01*
X231540Y190590D01*
X231537Y190821D01*
X231530Y190865D01*
X231529Y190911D01*
X231487Y191137D01*
X231451Y191366D01*
X231438Y191409D01*
X231430Y191453D01*
X231356Y191671D01*
X231287Y191892D01*
X231268Y191933D01*
X231253Y191976D01*
X231149Y192181D01*
X231049Y192390D01*
X231024Y192428D01*
X231003Y192468D01*
X230870Y192656D01*
X230741Y192848D01*
X230711Y192881D01*
X230685Y192918D01*
X230435Y193194D01*
X230213Y193416D01*
X227583Y199764D01*
X227583Y206636D01*
X230213Y212984D01*
X230435Y213206D01*
X230465Y213241D01*
X230498Y213271D01*
X230577Y213366D01*
X230613Y213403D01*
X230652Y213457D01*
X230796Y213624D01*
X230820Y213662D01*
X230849Y213697D01*
X230968Y213894D01*
X231093Y214089D01*
X231111Y214130D01*
X231135Y214169D01*
X231224Y214381D01*
X231319Y214592D01*
X231332Y214635D01*
X231349Y214677D01*
X231407Y214900D01*
X231471Y215122D01*
X231477Y215167D01*
X231488Y215211D01*
X231513Y215441D01*
X231544Y215669D01*
X231543Y215714D01*
X231548Y215759D01*
X231540Y215990D01*
X231537Y216221D01*
X231530Y216265D01*
X231529Y216311D01*
X231487Y216537D01*
X231451Y216766D01*
X231438Y216809D01*
X231430Y216853D01*
X231356Y217071D01*
X231287Y217292D01*
X231268Y217333D01*
X231253Y217376D01*
X231149Y217581D01*
X231049Y217790D01*
X231024Y217828D01*
X231003Y217868D01*
X230870Y218056D01*
X230741Y218248D01*
X230711Y218281D01*
X230685Y218318D01*
X230435Y218594D01*
X230213Y218816D01*
X227583Y225164D01*
X227583Y232036D01*
X230213Y238384D01*
X234599Y242771D01*
X234614Y242788D01*
X234630Y242802D01*
X234794Y242996D01*
X234960Y243188D01*
X234972Y243207D01*
X234986Y243224D01*
X235120Y243439D01*
X235257Y243653D01*
X235266Y243673D01*
X235278Y243692D01*
X235379Y243924D01*
X235484Y244156D01*
X235490Y244177D01*
X235498Y244198D01*
X235565Y244443D01*
X235635Y244687D01*
X235638Y244709D01*
X235644Y244730D01*
X235674Y244981D01*
X235708Y245233D01*
X235708Y245256D01*
X235711Y245277D01*
X235705Y245531D01*
X235702Y245785D01*
X235698Y245807D01*
X235698Y245829D01*
X235655Y246079D01*
X235616Y246330D01*
X235609Y246351D01*
X235605Y246373D01*
X235527Y246613D01*
X235452Y246857D01*
X235442Y246877D01*
X235435Y246898D01*
X235323Y247125D01*
X235213Y247354D01*
X235201Y247373D01*
X235191Y247392D01*
X234988Y247703D01*
X234862Y247876D01*
X234027Y249514D01*
X233808Y250191D01*
X254000Y250191D01*
X274192Y250191D01*
X273973Y249514D01*
X273138Y247876D01*
X273012Y247703D01*
X273001Y247685D01*
X272987Y247668D01*
X272856Y247451D01*
X272721Y247235D01*
X272712Y247215D01*
X272701Y247196D01*
X272603Y246963D01*
X272501Y246729D01*
X272495Y246708D01*
X272487Y246687D01*
X272423Y246443D01*
X272356Y246197D01*
X272353Y246175D01*
X272348Y246154D01*
X272320Y245901D01*
X272289Y245649D01*
X272290Y245627D01*
X272287Y245605D01*
X272296Y245350D01*
X272303Y245098D01*
X272306Y245076D01*
X272307Y245054D01*
X272353Y244804D01*
X272395Y244554D01*
X272402Y244533D01*
X272406Y244511D01*
X272487Y244271D01*
X272566Y244029D01*
X272575Y244009D01*
X272582Y243988D01*
X272697Y243763D01*
X272810Y243535D01*
X272822Y243516D01*
X272832Y243497D01*
X272978Y243290D01*
X273123Y243080D01*
X273138Y243064D01*
X273151Y243046D01*
X273401Y242771D01*
X277787Y238384D01*
X280417Y232036D01*
X280417Y225164D01*
X277787Y218816D01*
X277565Y218594D01*
X277535Y218559D01*
X277502Y218529D01*
X277355Y218350D01*
X277204Y218176D01*
X277180Y218138D01*
X277151Y218103D01*
X277031Y217906D01*
X276907Y217711D01*
X276889Y217670D01*
X276865Y217631D01*
X276776Y217419D01*
X276681Y217208D01*
X276668Y217165D01*
X276651Y217123D01*
X276593Y216900D01*
X276529Y216678D01*
X276523Y216633D01*
X276512Y216589D01*
X276487Y216360D01*
X276456Y216131D01*
X276457Y216086D01*
X276452Y216041D01*
X276460Y215810D01*
X276463Y215579D01*
X276470Y215535D01*
X276471Y215490D01*
X276513Y215262D01*
X276549Y215034D01*
X276562Y214991D01*
X276570Y214947D01*
X276644Y214728D01*
X276713Y214508D01*
X276732Y214467D01*
X276747Y214424D01*
X276852Y214218D01*
X276951Y214010D01*
X276976Y213973D01*
X276997Y213932D01*
X277130Y213744D01*
X277259Y213552D01*
X277289Y213519D01*
X277315Y213482D01*
X277491Y213288D01*
X277507Y213268D01*
X277520Y213255D01*
X277565Y213206D01*
X277787Y212984D01*
X280417Y206636D01*
X280417Y199764D01*
X278446Y195006D01*
X278370Y194777D01*
X278290Y194550D01*
X278283Y194516D01*
X278272Y194482D01*
X278230Y194244D01*
X278184Y194009D01*
X278182Y193974D01*
X278176Y193939D01*
X278169Y193697D01*
X278157Y193458D01*
X278160Y193423D01*
X278159Y193387D01*
X278187Y193148D01*
X278210Y192909D01*
X278218Y192875D01*
X278222Y192839D01*
X278284Y192606D01*
X278341Y192373D01*
X278355Y192340D01*
X278364Y192306D01*
X278458Y192086D01*
X278549Y191862D01*
X278567Y191831D01*
X278581Y191799D01*
X278707Y191594D01*
X278829Y191386D01*
X278851Y191359D01*
X278869Y191329D01*
X279023Y191144D01*
X279174Y190956D01*
X279200Y190932D01*
X279222Y190905D01*
X279401Y190745D01*
X279577Y190580D01*
X279607Y190560D01*
X279633Y190536D01*
X279833Y190403D01*
X280031Y190266D01*
X280063Y190250D01*
X280092Y190231D01*
X280309Y190128D01*
X280525Y190021D01*
X280559Y190010D01*
X280591Y189995D01*
X280821Y189925D01*
X281050Y189850D01*
X281085Y189844D01*
X281119Y189834D01*
X281356Y189798D01*
X281594Y189757D01*
X281637Y189755D01*
X281664Y189751D01*
X281730Y189750D01*
X281965Y189739D01*
X294475Y189739D01*
X298863Y187921D01*
X327621Y159163D01*
X329439Y154775D01*
X329439Y111925D01*
X327621Y107537D01*
X286163Y66079D01*
X281775Y64261D01*
X200825Y64261D01*
X196437Y66079D01*
X123171Y139346D01*
X123016Y139479D01*
X122865Y139620D01*
X122806Y139660D01*
X122753Y139706D01*
X122580Y139817D01*
X122411Y139934D01*
X122348Y139965D01*
X122288Y140003D01*
X122101Y140087D01*
X121917Y140179D01*
X121849Y140201D01*
X121785Y140230D01*
X121587Y140286D01*
X121392Y140350D01*
X121323Y140362D01*
X121255Y140381D01*
X121051Y140408D01*
X120848Y140443D01*
X120758Y140448D01*
X120708Y140454D01*
X120637Y140453D01*
X120477Y140461D01*
X116336Y140461D01*
X116096Y140444D01*
X115856Y140431D01*
X115821Y140424D01*
X115786Y140421D01*
X115551Y140369D01*
X115315Y140322D01*
X115282Y140310D01*
X115247Y140302D01*
X115022Y140217D01*
X114795Y140136D01*
X114764Y140119D01*
X114731Y140107D01*
X114521Y139990D01*
X114308Y139877D01*
X114280Y139856D01*
X114249Y139839D01*
X114057Y139692D01*
X113864Y139550D01*
X113839Y139525D01*
X113811Y139504D01*
X113643Y139332D01*
X113471Y139163D01*
X113450Y139134D01*
X113425Y139109D01*
X113284Y138915D01*
X113139Y138722D01*
X113122Y138691D01*
X113101Y138663D01*
X112989Y138451D01*
X112873Y138239D01*
X112861Y138206D01*
X112844Y138175D01*
X112764Y137947D01*
X112680Y137722D01*
X112673Y137688D01*
X112661Y137654D01*
X112615Y137418D01*
X112564Y137183D01*
X112562Y137147D01*
X112555Y137113D01*
X112543Y136872D01*
X112527Y136632D01*
X112530Y136597D01*
X112528Y136562D01*
X112551Y136322D01*
X112570Y136082D01*
X112577Y136048D01*
X112581Y136013D01*
X112638Y135780D01*
X112691Y135544D01*
X112706Y135503D01*
X112713Y135477D01*
X112737Y135416D01*
X112817Y135194D01*
X114809Y130385D01*
X114809Y123615D01*
X112218Y117360D01*
X111852Y116994D01*
X111822Y116959D01*
X111789Y116929D01*
X111641Y116750D01*
X111491Y116576D01*
X111467Y116538D01*
X111438Y116503D01*
X111318Y116306D01*
X111194Y116111D01*
X111176Y116070D01*
X111152Y116031D01*
X111063Y115819D01*
X110968Y115608D01*
X110955Y115565D01*
X110938Y115523D01*
X110880Y115300D01*
X110816Y115078D01*
X110810Y115033D01*
X110799Y114989D01*
X110774Y114760D01*
X110743Y114531D01*
X110743Y114486D01*
X110739Y114441D01*
X110747Y114210D01*
X110749Y113979D01*
X110757Y113935D01*
X110758Y113890D01*
X110800Y113662D01*
X110836Y113434D01*
X110849Y113391D01*
X110857Y113347D01*
X110931Y113128D01*
X111000Y112908D01*
X111019Y112867D01*
X111033Y112824D01*
X111138Y112618D01*
X111238Y112410D01*
X111263Y112373D01*
X111284Y112332D01*
X111417Y112144D01*
X111546Y111952D01*
X111576Y111919D01*
X111602Y111882D01*
X111852Y111606D01*
X112218Y111240D01*
X114809Y104985D01*
X114809Y98215D01*
X112218Y91960D01*
X111852Y91594D01*
X111822Y91559D01*
X111789Y91529D01*
X111641Y91350D01*
X111491Y91176D01*
X111467Y91138D01*
X111438Y91103D01*
X111318Y90906D01*
X111194Y90711D01*
X111176Y90670D01*
X111152Y90631D01*
X111063Y90419D01*
X110968Y90208D01*
X110955Y90165D01*
X110938Y90123D01*
X110880Y89900D01*
X110816Y89678D01*
X110810Y89633D01*
X110799Y89589D01*
X110774Y89360D01*
X110743Y89131D01*
X110743Y89086D01*
X110739Y89041D01*
X110747Y88810D01*
X110749Y88579D01*
X110757Y88535D01*
X110758Y88490D01*
X110800Y88262D01*
X110836Y88034D01*
X110849Y87991D01*
X110857Y87947D01*
X110931Y87728D01*
X111000Y87508D01*
X111019Y87467D01*
X111033Y87424D01*
X111138Y87218D01*
X111238Y87010D01*
X111263Y86973D01*
X111284Y86932D01*
X111417Y86744D01*
X111546Y86552D01*
X111576Y86519D01*
X111602Y86482D01*
X111852Y86206D01*
X112218Y85840D01*
X114809Y79585D01*
X114809Y72815D01*
X112218Y66560D01*
X111852Y66194D01*
X111822Y66159D01*
X111789Y66129D01*
X111641Y65950D01*
X111491Y65776D01*
X111467Y65738D01*
X111438Y65703D01*
X111318Y65506D01*
X111194Y65311D01*
X111176Y65270D01*
X111152Y65231D01*
X111063Y65019D01*
X110968Y64808D01*
X110955Y64765D01*
X110938Y64723D01*
X110880Y64500D01*
X110816Y64278D01*
X110810Y64233D01*
X110799Y64189D01*
X110774Y63960D01*
X110743Y63731D01*
X110743Y63686D01*
X110739Y63641D01*
X110747Y63410D01*
X110747Y63401D01*
X110747Y63400D01*
X110747Y63399D01*
X110749Y63179D01*
X110757Y63135D01*
X110758Y63090D01*
X110798Y62873D01*
X110800Y62851D01*
X110804Y62833D01*
X110836Y62634D01*
X110849Y62591D01*
X110857Y62547D01*
X110921Y62357D01*
X110931Y62315D01*
X110946Y62279D01*
X111000Y62108D01*
X111019Y62067D01*
X111033Y62024D01*
X111115Y61864D01*
X111139Y61804D01*
X111170Y61752D01*
X111238Y61610D01*
X111263Y61573D01*
X111284Y61532D01*
X111374Y61404D01*
X111419Y61328D01*
X111471Y61263D01*
X111546Y61152D01*
X111576Y61119D01*
X111602Y61082D01*
X111726Y60945D01*
X111764Y60898D01*
X111795Y60869D01*
X111852Y60806D01*
X112218Y60440D01*
X114809Y54185D01*
X114809Y47415D01*
X112218Y41160D01*
X107430Y36372D01*
X101175Y33781D01*
X76625Y33781D01*
G37*
%LPD*%
%LPC*%
G36*
X470020Y84327D02*
X470020Y84327D01*
X463672Y86957D01*
X458813Y91816D01*
X456183Y98164D01*
X456183Y105036D01*
X458813Y111384D01*
X459035Y111606D01*
X459065Y111641D01*
X459098Y111671D01*
X459245Y111849D01*
X459396Y112024D01*
X459420Y112062D01*
X459449Y112097D01*
X459568Y112294D01*
X459693Y112489D01*
X459711Y112530D01*
X459735Y112569D01*
X459824Y112781D01*
X459919Y112992D01*
X459932Y113035D01*
X459949Y113077D01*
X460007Y113300D01*
X460071Y113522D01*
X460077Y113567D01*
X460088Y113611D01*
X460113Y113841D01*
X460144Y114069D01*
X460143Y114114D01*
X460148Y114159D01*
X460140Y114390D01*
X460137Y114621D01*
X460130Y114665D01*
X460129Y114711D01*
X460087Y114937D01*
X460051Y115166D01*
X460038Y115209D01*
X460030Y115253D01*
X459956Y115471D01*
X459887Y115692D01*
X459868Y115733D01*
X459853Y115776D01*
X459749Y115981D01*
X459649Y116190D01*
X459624Y116228D01*
X459603Y116268D01*
X459470Y116456D01*
X459341Y116648D01*
X459311Y116681D01*
X459285Y116718D01*
X459035Y116994D01*
X458813Y117216D01*
X456183Y123564D01*
X456183Y130436D01*
X458813Y136784D01*
X459035Y137006D01*
X459065Y137041D01*
X459098Y137071D01*
X459175Y137164D01*
X459228Y137218D01*
X459278Y137287D01*
X459396Y137424D01*
X459420Y137462D01*
X459449Y137497D01*
X459543Y137651D01*
X459552Y137664D01*
X459562Y137684D01*
X459568Y137694D01*
X459693Y137889D01*
X459711Y137930D01*
X459735Y137969D01*
X459824Y138181D01*
X459919Y138392D01*
X459932Y138435D01*
X459949Y138477D01*
X460007Y138700D01*
X460071Y138922D01*
X460077Y138967D01*
X460088Y139011D01*
X460113Y139241D01*
X460144Y139469D01*
X460143Y139514D01*
X460148Y139559D01*
X460140Y139790D01*
X460137Y140021D01*
X460130Y140065D01*
X460129Y140111D01*
X460087Y140337D01*
X460051Y140566D01*
X460038Y140609D01*
X460030Y140653D01*
X459956Y140871D01*
X459887Y141092D01*
X459868Y141133D01*
X459853Y141176D01*
X459749Y141381D01*
X459649Y141590D01*
X459624Y141628D01*
X459603Y141668D01*
X459470Y141856D01*
X459341Y142048D01*
X459311Y142081D01*
X459285Y142118D01*
X459035Y142394D01*
X458813Y142616D01*
X456183Y148964D01*
X456183Y155836D01*
X458813Y162184D01*
X459035Y162406D01*
X459065Y162441D01*
X459098Y162471D01*
X459245Y162649D01*
X459396Y162824D01*
X459420Y162862D01*
X459449Y162897D01*
X459568Y163094D01*
X459693Y163289D01*
X459711Y163330D01*
X459735Y163369D01*
X459824Y163581D01*
X459919Y163792D01*
X459932Y163835D01*
X459949Y163877D01*
X460007Y164100D01*
X460071Y164322D01*
X460077Y164367D01*
X460088Y164411D01*
X460113Y164641D01*
X460144Y164869D01*
X460143Y164914D01*
X460148Y164959D01*
X460140Y165190D01*
X460137Y165421D01*
X460130Y165465D01*
X460129Y165511D01*
X460087Y165737D01*
X460051Y165966D01*
X460038Y166009D01*
X460030Y166053D01*
X459956Y166271D01*
X459887Y166492D01*
X459868Y166533D01*
X459853Y166576D01*
X459749Y166781D01*
X459649Y166990D01*
X459624Y167028D01*
X459603Y167068D01*
X459470Y167256D01*
X459341Y167448D01*
X459311Y167481D01*
X459285Y167518D01*
X459035Y167794D01*
X458813Y168016D01*
X456183Y174364D01*
X456183Y181236D01*
X458813Y187584D01*
X459035Y187806D01*
X459065Y187841D01*
X459098Y187871D01*
X459245Y188049D01*
X459396Y188224D01*
X459420Y188262D01*
X459449Y188297D01*
X459568Y188494D01*
X459693Y188689D01*
X459711Y188730D01*
X459735Y188769D01*
X459824Y188981D01*
X459919Y189192D01*
X459932Y189235D01*
X459949Y189277D01*
X460007Y189500D01*
X460071Y189722D01*
X460077Y189767D01*
X460088Y189811D01*
X460113Y190041D01*
X460144Y190269D01*
X460143Y190314D01*
X460148Y190359D01*
X460140Y190590D01*
X460137Y190821D01*
X460130Y190865D01*
X460129Y190911D01*
X460087Y191137D01*
X460051Y191366D01*
X460038Y191409D01*
X460030Y191453D01*
X459956Y191671D01*
X459887Y191892D01*
X459868Y191933D01*
X459853Y191976D01*
X459749Y192181D01*
X459649Y192390D01*
X459624Y192428D01*
X459603Y192468D01*
X459470Y192656D01*
X459341Y192848D01*
X459311Y192881D01*
X459285Y192918D01*
X459035Y193194D01*
X458813Y193416D01*
X456183Y199764D01*
X456183Y206636D01*
X458154Y211394D01*
X458230Y211623D01*
X458310Y211850D01*
X458317Y211884D01*
X458328Y211918D01*
X458370Y212155D01*
X458416Y212391D01*
X458418Y212426D01*
X458424Y212461D01*
X458431Y212701D01*
X458443Y212942D01*
X458440Y212977D01*
X458441Y213013D01*
X458413Y213252D01*
X458390Y213491D01*
X458382Y213525D01*
X458378Y213561D01*
X458316Y213794D01*
X458259Y214027D01*
X458245Y214059D01*
X458236Y214094D01*
X458141Y214316D01*
X458051Y214538D01*
X458033Y214568D01*
X458019Y214601D01*
X457894Y214806D01*
X457771Y215014D01*
X457749Y215041D01*
X457731Y215071D01*
X457578Y215255D01*
X457426Y215444D01*
X457400Y215468D01*
X457378Y215495D01*
X457199Y215656D01*
X457023Y215820D01*
X456994Y215840D01*
X456967Y215864D01*
X456767Y215997D01*
X456569Y216134D01*
X456537Y216150D01*
X456508Y216169D01*
X456290Y216272D01*
X456075Y216379D01*
X456041Y216390D01*
X456009Y216405D01*
X455779Y216475D01*
X455550Y216550D01*
X455515Y216556D01*
X455482Y216566D01*
X455244Y216602D01*
X455006Y216643D01*
X454963Y216645D01*
X454936Y216649D01*
X454871Y216650D01*
X454635Y216661D01*
X442125Y216661D01*
X437737Y218479D01*
X313671Y342546D01*
X313516Y342679D01*
X313365Y342820D01*
X313306Y342860D01*
X313253Y342906D01*
X313080Y343017D01*
X312911Y343134D01*
X312848Y343165D01*
X312788Y343203D01*
X312601Y343287D01*
X312417Y343379D01*
X312349Y343401D01*
X312285Y343430D01*
X312087Y343486D01*
X311892Y343550D01*
X311823Y343562D01*
X311755Y343581D01*
X311551Y343608D01*
X311348Y343643D01*
X311258Y343648D01*
X311208Y343654D01*
X311137Y343653D01*
X310977Y343661D01*
X226374Y343661D01*
X226169Y343646D01*
X225964Y343639D01*
X225895Y343626D01*
X225824Y343621D01*
X225623Y343577D01*
X225421Y343540D01*
X225354Y343518D01*
X225285Y343502D01*
X225093Y343429D01*
X224898Y343364D01*
X224835Y343332D01*
X224770Y343307D01*
X224590Y343207D01*
X224407Y343114D01*
X224349Y343073D01*
X224287Y343039D01*
X224124Y342914D01*
X223956Y342795D01*
X223889Y342735D01*
X223849Y342704D01*
X223800Y342653D01*
X223681Y342546D01*
X222002Y340867D01*
X209797Y340867D01*
X201167Y349497D01*
X201167Y361703D01*
X209797Y370333D01*
X222002Y370333D01*
X223681Y368654D01*
X223836Y368520D01*
X223987Y368380D01*
X224045Y368340D01*
X224098Y368294D01*
X224271Y368183D01*
X224440Y368066D01*
X224504Y368035D01*
X224563Y367997D01*
X224751Y367912D01*
X224935Y367821D01*
X225002Y367799D01*
X225066Y367770D01*
X225264Y367714D01*
X225459Y367650D01*
X225529Y367638D01*
X225597Y367619D01*
X225800Y367592D01*
X226003Y367557D01*
X226093Y367552D01*
X226143Y367546D01*
X226214Y367547D01*
X226374Y367539D01*
X319875Y367539D01*
X324263Y365721D01*
X448329Y241654D01*
X448484Y241521D01*
X448635Y241380D01*
X448694Y241340D01*
X448747Y241294D01*
X448920Y241183D01*
X449089Y241066D01*
X449152Y241035D01*
X449212Y240997D01*
X449399Y240913D01*
X449583Y240821D01*
X449651Y240799D01*
X449715Y240770D01*
X449913Y240714D01*
X450108Y240650D01*
X450177Y240638D01*
X450245Y240619D01*
X450449Y240592D01*
X450652Y240557D01*
X450742Y240552D01*
X450792Y240546D01*
X450863Y240547D01*
X451023Y240539D01*
X454635Y240539D01*
X454875Y240556D01*
X455115Y240569D01*
X455150Y240576D01*
X455185Y240579D01*
X455420Y240631D01*
X455656Y240678D01*
X455689Y240690D01*
X455724Y240698D01*
X455949Y240783D01*
X456176Y240864D01*
X456207Y240881D01*
X456240Y240893D01*
X456450Y241010D01*
X456663Y241123D01*
X456691Y241144D01*
X456722Y241161D01*
X456914Y241308D01*
X457107Y241450D01*
X457132Y241475D01*
X457160Y241496D01*
X457328Y241668D01*
X457500Y241837D01*
X457521Y241866D01*
X457546Y241891D01*
X457687Y242085D01*
X457833Y242278D01*
X457850Y242309D01*
X457870Y242337D01*
X457982Y242549D01*
X458098Y242761D01*
X458110Y242794D01*
X458127Y242825D01*
X458207Y243052D01*
X458291Y243278D01*
X458298Y243312D01*
X458310Y243346D01*
X458356Y243582D01*
X458407Y243817D01*
X458410Y243853D01*
X458416Y243887D01*
X458428Y244128D01*
X458444Y244368D01*
X458442Y244403D01*
X458443Y244438D01*
X458420Y244678D01*
X458401Y244918D01*
X458394Y244952D01*
X458390Y244987D01*
X458333Y245220D01*
X458280Y245456D01*
X458265Y245497D01*
X458259Y245523D01*
X458234Y245584D01*
X458154Y245806D01*
X456183Y250564D01*
X456183Y257436D01*
X458813Y263784D01*
X459035Y264006D01*
X459065Y264041D01*
X459098Y264071D01*
X459245Y264250D01*
X459396Y264424D01*
X459420Y264462D01*
X459449Y264497D01*
X459569Y264694D01*
X459693Y264889D01*
X459711Y264930D01*
X459735Y264969D01*
X459824Y265181D01*
X459919Y265392D01*
X459932Y265435D01*
X459949Y265477D01*
X460007Y265700D01*
X460071Y265922D01*
X460077Y265967D01*
X460088Y266011D01*
X460113Y266240D01*
X460144Y266469D01*
X460143Y266514D01*
X460148Y266559D01*
X460140Y266790D01*
X460137Y267021D01*
X460130Y267065D01*
X460129Y267110D01*
X460087Y267338D01*
X460051Y267566D01*
X460038Y267609D01*
X460030Y267653D01*
X459956Y267872D01*
X459887Y268092D01*
X459868Y268133D01*
X459853Y268176D01*
X459748Y268382D01*
X459649Y268590D01*
X459624Y268627D01*
X459603Y268668D01*
X459470Y268856D01*
X459341Y269048D01*
X459311Y269081D01*
X459285Y269118D01*
X459035Y269394D01*
X458813Y269616D01*
X456183Y275964D01*
X456183Y282836D01*
X458813Y289184D01*
X463672Y294043D01*
X470020Y296673D01*
X495180Y296673D01*
X501528Y294043D01*
X506387Y289184D01*
X509017Y282836D01*
X509017Y275964D01*
X506387Y269616D01*
X506165Y269394D01*
X506135Y269359D01*
X506102Y269329D01*
X505955Y269151D01*
X505804Y268976D01*
X505780Y268938D01*
X505751Y268903D01*
X505632Y268706D01*
X505507Y268511D01*
X505489Y268470D01*
X505465Y268431D01*
X505376Y268219D01*
X505281Y268008D01*
X505268Y267965D01*
X505251Y267923D01*
X505193Y267700D01*
X505129Y267478D01*
X505123Y267433D01*
X505112Y267389D01*
X505087Y267159D01*
X505056Y266931D01*
X505057Y266886D01*
X505052Y266841D01*
X505060Y266610D01*
X505063Y266379D01*
X505070Y266335D01*
X505071Y266289D01*
X505113Y266063D01*
X505149Y265834D01*
X505162Y265791D01*
X505170Y265747D01*
X505244Y265529D01*
X505313Y265308D01*
X505332Y265267D01*
X505347Y265224D01*
X505451Y265019D01*
X505551Y264810D01*
X505576Y264772D01*
X505597Y264732D01*
X505730Y264544D01*
X505859Y264352D01*
X505889Y264319D01*
X505915Y264282D01*
X506165Y264006D01*
X506387Y263784D01*
X509017Y257436D01*
X509017Y250564D01*
X506387Y244216D01*
X506165Y243994D01*
X506135Y243959D01*
X506102Y243929D01*
X505955Y243750D01*
X505804Y243576D01*
X505780Y243538D01*
X505751Y243503D01*
X505631Y243306D01*
X505507Y243111D01*
X505489Y243070D01*
X505465Y243031D01*
X505376Y242819D01*
X505281Y242608D01*
X505268Y242565D01*
X505251Y242523D01*
X505193Y242300D01*
X505129Y242078D01*
X505123Y242033D01*
X505112Y241989D01*
X505087Y241760D01*
X505056Y241531D01*
X505057Y241486D01*
X505052Y241441D01*
X505060Y241210D01*
X505063Y240979D01*
X505070Y240935D01*
X505071Y240890D01*
X505113Y240662D01*
X505149Y240434D01*
X505162Y240391D01*
X505170Y240347D01*
X505244Y240128D01*
X505313Y239908D01*
X505332Y239867D01*
X505347Y239824D01*
X505452Y239618D01*
X505551Y239410D01*
X505576Y239373D01*
X505597Y239332D01*
X505730Y239144D01*
X505859Y238952D01*
X505889Y238919D01*
X505915Y238882D01*
X506165Y238606D01*
X506387Y238384D01*
X509017Y232036D01*
X509017Y225164D01*
X506387Y218816D01*
X506165Y218594D01*
X506135Y218559D01*
X506102Y218529D01*
X505955Y218350D01*
X505804Y218176D01*
X505780Y218138D01*
X505751Y218103D01*
X505631Y217906D01*
X505507Y217711D01*
X505489Y217670D01*
X505465Y217631D01*
X505376Y217419D01*
X505281Y217208D01*
X505268Y217165D01*
X505251Y217123D01*
X505193Y216900D01*
X505129Y216678D01*
X505123Y216633D01*
X505112Y216589D01*
X505087Y216360D01*
X505056Y216131D01*
X505057Y216086D01*
X505052Y216041D01*
X505060Y215810D01*
X505063Y215579D01*
X505070Y215535D01*
X505071Y215490D01*
X505113Y215262D01*
X505149Y215034D01*
X505162Y214991D01*
X505170Y214947D01*
X505244Y214728D01*
X505313Y214508D01*
X505332Y214467D01*
X505347Y214424D01*
X505452Y214218D01*
X505551Y214010D01*
X505576Y213973D01*
X505597Y213932D01*
X505730Y213744D01*
X505859Y213552D01*
X505889Y213519D01*
X505915Y213482D01*
X506091Y213288D01*
X506107Y213268D01*
X506120Y213255D01*
X506165Y213206D01*
X506387Y212984D01*
X509017Y206636D01*
X509017Y199764D01*
X506387Y193416D01*
X506165Y193194D01*
X506135Y193159D01*
X506102Y193129D01*
X505955Y192950D01*
X505804Y192776D01*
X505780Y192738D01*
X505751Y192703D01*
X505631Y192506D01*
X505507Y192311D01*
X505489Y192270D01*
X505465Y192231D01*
X505376Y192019D01*
X505281Y191808D01*
X505268Y191765D01*
X505251Y191723D01*
X505193Y191500D01*
X505129Y191278D01*
X505123Y191233D01*
X505112Y191189D01*
X505087Y190960D01*
X505056Y190731D01*
X505057Y190686D01*
X505052Y190641D01*
X505060Y190410D01*
X505063Y190179D01*
X505070Y190135D01*
X505071Y190090D01*
X505113Y189862D01*
X505149Y189634D01*
X505162Y189591D01*
X505170Y189547D01*
X505244Y189328D01*
X505313Y189108D01*
X505332Y189067D01*
X505347Y189024D01*
X505452Y188818D01*
X505551Y188610D01*
X505576Y188573D01*
X505597Y188532D01*
X505730Y188344D01*
X505859Y188152D01*
X505889Y188119D01*
X505915Y188082D01*
X506165Y187806D01*
X506387Y187584D01*
X509017Y181236D01*
X509017Y174364D01*
X506387Y168016D01*
X506165Y167794D01*
X506135Y167759D01*
X506102Y167729D01*
X505955Y167550D01*
X505804Y167376D01*
X505780Y167338D01*
X505751Y167303D01*
X505631Y167106D01*
X505507Y166911D01*
X505489Y166870D01*
X505465Y166831D01*
X505376Y166619D01*
X505281Y166408D01*
X505268Y166365D01*
X505251Y166323D01*
X505193Y166100D01*
X505129Y165878D01*
X505123Y165833D01*
X505112Y165789D01*
X505087Y165560D01*
X505056Y165331D01*
X505057Y165286D01*
X505052Y165241D01*
X505060Y165010D01*
X505063Y164779D01*
X505070Y164735D01*
X505071Y164690D01*
X505113Y164462D01*
X505149Y164234D01*
X505162Y164191D01*
X505170Y164147D01*
X505244Y163928D01*
X505313Y163708D01*
X505332Y163667D01*
X505347Y163624D01*
X505452Y163418D01*
X505551Y163210D01*
X505576Y163173D01*
X505597Y163132D01*
X505730Y162944D01*
X505859Y162752D01*
X505889Y162719D01*
X505915Y162682D01*
X506165Y162406D01*
X506387Y162184D01*
X509017Y155836D01*
X509017Y148964D01*
X506387Y142616D01*
X506165Y142394D01*
X506135Y142359D01*
X506102Y142329D01*
X505955Y142150D01*
X505804Y141976D01*
X505780Y141938D01*
X505751Y141903D01*
X505631Y141706D01*
X505507Y141511D01*
X505489Y141470D01*
X505465Y141431D01*
X505376Y141219D01*
X505281Y141008D01*
X505268Y140965D01*
X505251Y140923D01*
X505193Y140700D01*
X505129Y140478D01*
X505123Y140433D01*
X505112Y140389D01*
X505087Y140160D01*
X505056Y139931D01*
X505057Y139886D01*
X505052Y139841D01*
X505060Y139610D01*
X505063Y139379D01*
X505070Y139335D01*
X505071Y139290D01*
X505113Y139062D01*
X505149Y138834D01*
X505162Y138791D01*
X505170Y138747D01*
X505244Y138528D01*
X505313Y138308D01*
X505332Y138267D01*
X505347Y138224D01*
X505452Y138018D01*
X505551Y137810D01*
X505576Y137773D01*
X505597Y137732D01*
X505724Y137552D01*
X505747Y137513D01*
X505769Y137486D01*
X505859Y137352D01*
X505889Y137319D01*
X505915Y137282D01*
X506065Y137116D01*
X506092Y137083D01*
X506114Y137062D01*
X506165Y137006D01*
X506387Y136784D01*
X509017Y130436D01*
X509017Y123564D01*
X506387Y117216D01*
X506165Y116994D01*
X506135Y116959D01*
X506102Y116929D01*
X505955Y116750D01*
X505804Y116576D01*
X505780Y116538D01*
X505751Y116503D01*
X505631Y116306D01*
X505507Y116111D01*
X505489Y116070D01*
X505465Y116031D01*
X505376Y115819D01*
X505281Y115608D01*
X505268Y115565D01*
X505251Y115523D01*
X505193Y115300D01*
X505129Y115078D01*
X505123Y115033D01*
X505112Y114989D01*
X505087Y114760D01*
X505056Y114531D01*
X505057Y114486D01*
X505052Y114441D01*
X505060Y114210D01*
X505063Y113979D01*
X505070Y113935D01*
X505071Y113890D01*
X505113Y113662D01*
X505149Y113434D01*
X505162Y113391D01*
X505170Y113347D01*
X505244Y113128D01*
X505313Y112908D01*
X505332Y112867D01*
X505347Y112824D01*
X505452Y112618D01*
X505551Y112410D01*
X505576Y112373D01*
X505597Y112332D01*
X505730Y112144D01*
X505859Y111952D01*
X505889Y111919D01*
X505915Y111882D01*
X506165Y111606D01*
X506387Y111384D01*
X509017Y105036D01*
X509017Y98164D01*
X506387Y91816D01*
X501528Y86957D01*
X495180Y84327D01*
X470020Y84327D01*
G37*
%LPD*%
%LPC*%
G36*
X88900Y207009D02*
X88900Y207009D01*
X69229Y207009D01*
X69417Y207588D01*
X70234Y209191D01*
X70475Y209523D01*
X70486Y209542D01*
X70500Y209559D01*
X70631Y209775D01*
X70766Y209991D01*
X70775Y210012D01*
X70786Y210031D01*
X70884Y210264D01*
X70986Y210497D01*
X70992Y210519D01*
X71000Y210539D01*
X71064Y210784D01*
X71131Y211029D01*
X71134Y211051D01*
X71139Y211073D01*
X71167Y211324D01*
X71198Y211577D01*
X71197Y211599D01*
X71200Y211621D01*
X71191Y211874D01*
X71184Y212129D01*
X71181Y212150D01*
X71180Y212172D01*
X71134Y212422D01*
X71092Y212672D01*
X71085Y212693D01*
X71081Y212715D01*
X71000Y212955D01*
X70921Y213197D01*
X70912Y213217D01*
X70905Y213238D01*
X70790Y213463D01*
X70677Y213692D01*
X70665Y213710D01*
X70655Y213730D01*
X70508Y213937D01*
X70364Y214146D01*
X70349Y214162D01*
X70336Y214180D01*
X70086Y214455D01*
X65582Y218960D01*
X62991Y225215D01*
X62991Y231985D01*
X65582Y238240D01*
X70370Y243028D01*
X76625Y245619D01*
X87457Y245619D01*
X87662Y245634D01*
X87867Y245641D01*
X87937Y245654D01*
X88007Y245659D01*
X88208Y245703D01*
X88410Y245740D01*
X88477Y245762D01*
X88546Y245778D01*
X88738Y245851D01*
X88933Y245916D01*
X88996Y245948D01*
X89062Y245973D01*
X89241Y246073D01*
X89425Y246166D01*
X89482Y246207D01*
X89544Y246241D01*
X89707Y246366D01*
X89875Y246485D01*
X89942Y246545D01*
X89982Y246576D01*
X90031Y246626D01*
X90151Y246734D01*
X129043Y285627D01*
X132937Y289521D01*
X137325Y291339D01*
X230790Y291339D01*
X230995Y291354D01*
X231200Y291361D01*
X231269Y291374D01*
X231340Y291379D01*
X231541Y291423D01*
X231743Y291460D01*
X231809Y291482D01*
X231878Y291498D01*
X232071Y291571D01*
X232265Y291636D01*
X232328Y291668D01*
X232394Y291693D01*
X232574Y291793D01*
X232757Y291886D01*
X232815Y291927D01*
X232876Y291961D01*
X233040Y292086D01*
X233208Y292205D01*
X233275Y292265D01*
X233315Y292296D01*
X233364Y292347D01*
X233483Y292454D01*
X235072Y294043D01*
X241420Y296673D01*
X266580Y296673D01*
X272928Y294043D01*
X277787Y289184D01*
X280417Y282836D01*
X280417Y275964D01*
X277787Y269616D01*
X273401Y265229D01*
X273386Y265212D01*
X273370Y265198D01*
X273206Y265004D01*
X273040Y264812D01*
X273028Y264793D01*
X273014Y264776D01*
X272879Y264560D01*
X272743Y264347D01*
X272734Y264327D01*
X272722Y264308D01*
X272621Y264076D01*
X272516Y263844D01*
X272510Y263823D01*
X272502Y263802D01*
X272435Y263557D01*
X272365Y263313D01*
X272362Y263291D01*
X272356Y263270D01*
X272326Y263019D01*
X272292Y262767D01*
X272292Y262744D01*
X272289Y262723D01*
X272295Y262469D01*
X272298Y262215D01*
X272302Y262193D01*
X272302Y262171D01*
X272345Y261921D01*
X272384Y261670D01*
X272391Y261649D01*
X272395Y261627D01*
X272473Y261386D01*
X272548Y261143D01*
X272558Y261123D01*
X272565Y261102D01*
X272677Y260875D01*
X272787Y260646D01*
X272799Y260627D01*
X272809Y260608D01*
X273012Y260297D01*
X273138Y260124D01*
X273973Y258486D01*
X274192Y257809D01*
X254000Y257809D01*
X233808Y257809D01*
X234027Y258486D01*
X234862Y260124D01*
X234988Y260297D01*
X234999Y260315D01*
X235013Y260332D01*
X235145Y260550D01*
X235279Y260765D01*
X235288Y260785D01*
X235299Y260804D01*
X235398Y261038D01*
X235499Y261271D01*
X235505Y261292D01*
X235513Y261313D01*
X235577Y261557D01*
X235644Y261803D01*
X235647Y261825D01*
X235652Y261847D01*
X235680Y262099D01*
X235711Y262351D01*
X235710Y262373D01*
X235713Y262395D01*
X235704Y262649D01*
X235697Y262902D01*
X235694Y262924D01*
X235693Y262946D01*
X235647Y263197D01*
X235605Y263446D01*
X235598Y263467D01*
X235594Y263489D01*
X235513Y263730D01*
X235434Y263971D01*
X235425Y263991D01*
X235418Y264012D01*
X235303Y264237D01*
X235190Y264465D01*
X235178Y264484D01*
X235168Y264503D01*
X235022Y264710D01*
X234877Y264920D01*
X234862Y264936D01*
X234849Y264954D01*
X234599Y265229D01*
X233483Y266346D01*
X233328Y266480D01*
X233177Y266620D01*
X233119Y266660D01*
X233066Y266706D01*
X232893Y266817D01*
X232723Y266934D01*
X232660Y266965D01*
X232601Y267003D01*
X232413Y267088D01*
X232229Y267179D01*
X232162Y267201D01*
X232098Y267230D01*
X231900Y267286D01*
X231705Y267350D01*
X231635Y267362D01*
X231567Y267381D01*
X231364Y267408D01*
X231161Y267443D01*
X231070Y267448D01*
X231020Y267454D01*
X230950Y267453D01*
X230790Y267461D01*
X146223Y267461D01*
X146018Y267446D01*
X145813Y267439D01*
X145743Y267426D01*
X145673Y267421D01*
X145472Y267377D01*
X145270Y267340D01*
X145203Y267318D01*
X145134Y267302D01*
X144942Y267229D01*
X144747Y267164D01*
X144684Y267132D01*
X144618Y267107D01*
X144439Y267007D01*
X144255Y266914D01*
X144198Y266873D01*
X144136Y266839D01*
X143973Y266714D01*
X143805Y266595D01*
X143738Y266535D01*
X143698Y266504D01*
X143648Y266453D01*
X143529Y266346D01*
X114957Y237773D01*
X114875Y237678D01*
X114785Y237590D01*
X114695Y237470D01*
X114596Y237356D01*
X114528Y237250D01*
X114453Y237150D01*
X114380Y237018D01*
X114299Y236890D01*
X114248Y236776D01*
X114187Y236666D01*
X114135Y236525D01*
X114073Y236387D01*
X114038Y236267D01*
X113994Y236149D01*
X113963Y236002D01*
X113921Y235857D01*
X113905Y235732D01*
X113878Y235610D01*
X113868Y235460D01*
X113848Y235310D01*
X113849Y235185D01*
X113841Y235060D01*
X113853Y234909D01*
X113855Y234759D01*
X113874Y234635D01*
X113884Y234510D01*
X113917Y234363D01*
X113941Y234214D01*
X113978Y234094D01*
X114006Y233971D01*
X114085Y233750D01*
X114105Y233687D01*
X114116Y233662D01*
X114131Y233622D01*
X114809Y231985D01*
X114809Y225215D01*
X112218Y218960D01*
X107714Y214455D01*
X107699Y214439D01*
X107683Y214424D01*
X107519Y214230D01*
X107353Y214038D01*
X107341Y214020D01*
X107327Y214003D01*
X107192Y213787D01*
X107056Y213573D01*
X107047Y213553D01*
X107035Y213534D01*
X106934Y213303D01*
X106829Y213070D01*
X106823Y213049D01*
X106815Y213029D01*
X106748Y212784D01*
X106678Y212540D01*
X106675Y212518D01*
X106669Y212496D01*
X106639Y212245D01*
X106605Y211993D01*
X106605Y211971D01*
X106602Y211949D01*
X106608Y211695D01*
X106611Y211441D01*
X106615Y211419D01*
X106615Y211397D01*
X106658Y211147D01*
X106697Y210896D01*
X106704Y210875D01*
X106708Y210853D01*
X106786Y210613D01*
X106861Y210369D01*
X106871Y210350D01*
X106878Y210329D01*
X106990Y210101D01*
X107100Y209872D01*
X107112Y209854D01*
X107122Y209834D01*
X107325Y209523D01*
X107566Y209191D01*
X108383Y207588D01*
X108571Y207009D01*
X88900Y207009D01*
X88900Y207009D01*
G37*
%LPD*%
%LPC*%
G36*
X88900Y334009D02*
X88900Y334009D01*
X79777Y334009D01*
X82023Y336255D01*
X82052Y336289D01*
X82086Y336320D01*
X82233Y336498D01*
X82383Y336672D01*
X82408Y336711D01*
X82436Y336745D01*
X82556Y336943D01*
X82680Y337138D01*
X82699Y337179D01*
X82722Y337217D01*
X82812Y337430D01*
X82907Y337641D01*
X82919Y337684D01*
X82937Y337726D01*
X82995Y337949D01*
X83058Y338171D01*
X83064Y338216D01*
X83075Y338259D01*
X83101Y338489D01*
X83131Y338718D01*
X83131Y338763D01*
X83136Y338808D01*
X83127Y339039D01*
X83125Y339269D01*
X83118Y339314D01*
X83116Y339359D01*
X83075Y339586D01*
X83039Y339814D01*
X83025Y339858D01*
X83017Y339902D01*
X82944Y340120D01*
X82875Y340341D01*
X82855Y340382D01*
X82841Y340425D01*
X82737Y340630D01*
X82636Y340839D01*
X82611Y340876D01*
X82591Y340916D01*
X82458Y341104D01*
X82329Y341297D01*
X82298Y341330D01*
X82272Y341367D01*
X82023Y341642D01*
X74167Y349498D01*
X74167Y361703D01*
X82797Y370333D01*
X95002Y370333D01*
X96681Y368654D01*
X96836Y368520D01*
X96987Y368380D01*
X97045Y368340D01*
X97098Y368294D01*
X97271Y368183D01*
X97440Y368066D01*
X97504Y368035D01*
X97563Y367997D01*
X97751Y367912D01*
X97935Y367821D01*
X98002Y367799D01*
X98066Y367770D01*
X98264Y367714D01*
X98459Y367650D01*
X98529Y367638D01*
X98597Y367619D01*
X98800Y367592D01*
X99003Y367557D01*
X99093Y367552D01*
X99143Y367546D01*
X99214Y367547D01*
X99374Y367539D01*
X129226Y367539D01*
X129431Y367554D01*
X129636Y367561D01*
X129705Y367574D01*
X129776Y367579D01*
X129977Y367623D01*
X130179Y367660D01*
X130246Y367682D01*
X130315Y367698D01*
X130507Y367771D01*
X130702Y367836D01*
X130765Y367868D01*
X130830Y367893D01*
X131010Y367993D01*
X131193Y368086D01*
X131251Y368127D01*
X131313Y368161D01*
X131476Y368286D01*
X131644Y368405D01*
X131711Y368465D01*
X131751Y368496D01*
X131800Y368547D01*
X131919Y368654D01*
X133598Y370333D01*
X145803Y370333D01*
X154433Y361703D01*
X154433Y349497D01*
X145803Y340867D01*
X133598Y340867D01*
X131919Y342546D01*
X131764Y342680D01*
X131613Y342820D01*
X131555Y342860D01*
X131502Y342906D01*
X131329Y343017D01*
X131160Y343134D01*
X131096Y343165D01*
X131037Y343203D01*
X130849Y343288D01*
X130665Y343379D01*
X130598Y343401D01*
X130534Y343430D01*
X130336Y343486D01*
X130141Y343550D01*
X130071Y343562D01*
X130003Y343581D01*
X129800Y343608D01*
X129597Y343643D01*
X129507Y343648D01*
X129457Y343654D01*
X129386Y343653D01*
X129226Y343661D01*
X99374Y343661D01*
X99169Y343646D01*
X98964Y343639D01*
X98895Y343626D01*
X98824Y343621D01*
X98623Y343577D01*
X98421Y343540D01*
X98354Y343518D01*
X98285Y343502D01*
X98093Y343429D01*
X97898Y343364D01*
X97835Y343332D01*
X97770Y343307D01*
X97590Y343207D01*
X97407Y343114D01*
X97349Y343073D01*
X97287Y343039D01*
X97124Y342914D01*
X96956Y342795D01*
X96889Y342735D01*
X96849Y342704D01*
X96800Y342653D01*
X96681Y342546D01*
X95777Y341642D01*
X95748Y341608D01*
X95714Y341578D01*
X95567Y341399D01*
X95417Y341225D01*
X95392Y341187D01*
X95364Y341152D01*
X95244Y340955D01*
X95120Y340760D01*
X95101Y340719D01*
X95078Y340680D01*
X94988Y340468D01*
X94893Y340257D01*
X94881Y340213D01*
X94863Y340172D01*
X94805Y339949D01*
X94742Y339726D01*
X94736Y339682D01*
X94725Y339638D01*
X94699Y339409D01*
X94669Y339180D01*
X94669Y339134D01*
X94664Y339090D01*
X94673Y338859D01*
X94675Y338628D01*
X94682Y338583D01*
X94684Y338538D01*
X94725Y338311D01*
X94761Y338083D01*
X94775Y338040D01*
X94783Y337996D01*
X94857Y337777D01*
X94925Y337556D01*
X94945Y337516D01*
X94959Y337473D01*
X95064Y337267D01*
X95164Y337059D01*
X95189Y337021D01*
X95209Y336981D01*
X95343Y336793D01*
X95471Y336601D01*
X95502Y336567D01*
X95528Y336531D01*
X95777Y336255D01*
X98023Y334009D01*
X88900Y334009D01*
X88900Y334009D01*
G37*
%LPD*%
%LPC*%
G36*
X92709Y326391D02*
X92709Y326391D01*
X98023Y326391D01*
X92709Y321077D01*
X92709Y326391D01*
G37*
%LPD*%
%LPC*%
G36*
X79777Y326391D02*
X79777Y326391D01*
X85091Y326391D01*
X85091Y321077D01*
X79777Y326391D01*
G37*
%LPD*%
D10*
X88900Y355600D03*
X88900Y330200D03*
D11*
X215900Y355600D03*
X139700Y355600D03*
D12*
X97790Y152400D02*
X80010Y152400D01*
X80010Y127000D02*
X97790Y127000D01*
X97790Y177800D02*
X80010Y177800D01*
X80010Y203200D02*
X97790Y203200D01*
X97790Y228600D02*
X80010Y228600D01*
X80010Y101600D02*
X97790Y101600D01*
X97790Y76200D02*
X80010Y76200D01*
X80010Y50800D02*
X97790Y50800D01*
D13*
X244856Y279400D02*
X263144Y279400D01*
X263144Y254000D02*
X244856Y254000D01*
X244856Y228600D02*
X263144Y228600D01*
X263144Y203200D02*
X244856Y203200D01*
X244856Y177800D02*
X263144Y177800D01*
X263144Y152400D02*
X244856Y152400D01*
X244856Y127000D02*
X263144Y127000D01*
X263144Y101600D02*
X244856Y101600D01*
X473456Y279400D02*
X491744Y279400D01*
X491744Y254000D02*
X473456Y254000D01*
X473456Y228600D02*
X491744Y228600D01*
X491744Y203200D02*
X473456Y203200D01*
X473456Y177800D02*
X491744Y177800D01*
X491744Y152400D02*
X473456Y152400D01*
X473456Y127000D02*
X491744Y127000D01*
X491744Y101600D02*
X473456Y101600D01*
D14*
X139700Y279400D02*
X88900Y228600D01*
X139700Y279400D02*
X254000Y279400D01*
X88900Y203200D02*
X50800Y203200D01*
X25400Y228600D01*
X25400Y304800D01*
X50800Y330200D02*
X88900Y330200D01*
X50800Y330200D02*
X25400Y304800D01*
X88900Y203200D02*
X165100Y203200D01*
X215900Y254000D01*
X254000Y254000D01*
X190500Y177800D02*
X88900Y177800D01*
X190500Y177800D02*
X215900Y152400D01*
X254000Y152400D01*
X127000Y152400D02*
X88900Y152400D01*
X127000Y152400D02*
X203200Y76200D01*
X279400Y76200D02*
X317500Y114300D01*
X317500Y152400D01*
X292100Y177800D01*
X279400Y76200D02*
X203200Y76200D01*
X254000Y177800D02*
X292100Y177800D01*
X317500Y355600D02*
X215900Y355600D01*
X317500Y355600D02*
X444500Y228600D01*
X482600Y228600D01*
X139700Y355600D02*
X88900Y355600D01*
M02*
