M48
;GenerationSoftware,Autodesk,EAGLE,9.1.1*%
;CreationDate,2018-07-25T09:16:14Z*%
FMAT,2
ICI,OFF
METRIC,TZ,000.000
T3C0.800
T2C0.813
T1C1.016
%
G90
M71
T1
X25400Y27940
X25400Y25400
X25400Y22860
X25400Y20320
X25400Y17780
X25400Y15240
X25400Y12700
X25400Y10160
X48260Y27940
X48260Y25400
X48260Y22860
X48260Y20320
X48260Y17780
X48260Y15240
X48260Y12700
X48260Y10160
T2
X8890Y35560
X8890Y33020
X21590Y35560
X13970Y35560
T3
X8890Y15240
X8890Y12700
X8890Y17780
X8890Y20320
X8890Y22860
X8890Y10160
X8890Y7620
X8890Y5080
M30